<svg width="190" height="120" viewBox="0 0 190 120" fill="none" xmlns="http://www.w3.org/2000/svg">
<path d="M37.765 96.152C29.509 96.152 23.077 93.368 18.469 87.8C13.861 82.232 11.557 73.656 11.557 62.072C11.557 50.424 13.861 41.848 18.469 36.344C23.077 30.776 29.509 27.992 37.765 27.992C42.373 27.992 46.501 28.888 50.149 30.68C53.797 32.472 56.677 35.256 58.789 39.032C60.901 42.808 61.957 47.672 61.957 53.624H49.381C49.381 48.504 48.293 44.728 46.117 42.296C44.005 39.8 41.221 38.552 37.765 38.552C33.221 38.552 29.829 40.44 27.589 44.216C25.349 47.928 24.229 53.08 24.229 59.672V64.472C24.229 71.064 25.381 76.248 27.685 80.024C29.989 83.736 33.477 85.592 38.149 85.592C41.733 85.592 44.581 84.376 46.693 81.944C48.869 79.448 49.957 75.672 49.957 70.616H61.957C61.957 76.376 60.901 81.144 58.789 84.92C56.677 88.696 53.797 91.512 50.149 93.368C46.565 95.224 42.437 96.152 37.765 96.152Z" fill="#FC0D0D"/>
<path d="M77.8655 95.48C74.3188 95.48 71.5321 94.32 69.5055 92C67.4788 89.68 66.4655 86.1067 66.4655 81.28C66.4655 76.4267 67.4788 72.8533 69.5055 70.56C71.5321 68.24 74.3188 67.08 77.8655 67.08C81.4121 67.08 84.1988 68.24 86.2255 70.56C88.2521 72.8533 89.2655 76.4267 89.2655 81.28C89.2655 86.1067 88.2521 89.68 86.2255 92C84.1988 94.32 81.4121 95.48 77.8655 95.48ZM77.8655 91.08C79.9188 91.08 81.4521 90.3067 82.4655 88.76C83.4788 87.1867 83.9855 85.0267 83.9855 82.28V80.28C83.9855 77.5333 83.4788 75.3867 82.4655 73.84C81.4521 72.2667 79.9188 71.48 77.8655 71.48C75.8388 71.48 74.3055 72.2667 73.2655 73.84C72.2521 75.3867 71.7455 77.5333 71.7455 80.28V82.28C71.7455 85.0267 72.2521 87.1867 73.2655 88.76C74.3055 90.3067 75.8388 91.08 77.8655 91.08ZM102.453 95.48C99.5199 95.48 97.2133 94.72 95.5333 93.2C93.8799 91.6533 93.0533 89.3867 93.0533 86.4V67.56H98.1733V86.24C98.1733 87.8133 98.5466 89.0133 99.2933 89.84C100.04 90.6667 101.093 91.08 102.453 91.08C103.813 91.08 104.867 90.6667 105.613 89.84C106.387 89.0133 106.773 87.8133 106.773 86.24V67.56H111.893V86.4C111.893 89.3867 111.053 91.6533 109.373 93.2C107.693 94.72 105.387 95.48 102.453 95.48ZM116.685 95V67.56H128.165C130.938 67.56 133.032 68.3067 134.445 69.8C135.858 71.2667 136.565 73.1333 136.565 75.4C136.565 77.0533 136.152 78.4933 135.325 79.72C134.498 80.9467 133.378 81.8533 131.965 82.44L137.245 95H131.685L127.125 83.56H121.805V95H116.685ZM121.805 79.04H127.445C128.698 79.04 129.605 78.72 130.165 78.08C130.752 77.44 131.045 76.5467 131.045 75.4C131.045 74.3867 130.765 73.5867 130.205 73C129.672 72.4133 128.818 72.12 127.645 72.12H121.805V79.04ZM148.637 95.48C146.957 95.48 145.397 95.16 143.957 94.52C142.517 93.88 141.357 92.9333 140.477 91.68C139.597 90.4 139.157 88.8267 139.157 86.96C139.157 86.8 139.157 86.64 139.157 86.48C139.184 86.32 139.197 86.1867 139.197 86.08H144.517C144.517 86.1067 144.504 86.2 144.477 86.36C144.477 86.4933 144.477 86.6133 144.477 86.72C144.477 88.0267 144.864 89.08 145.637 89.88C146.41 90.68 147.49 91.08 148.877 91.08C150.424 91.08 151.504 90.7467 152.117 90.08C152.73 89.3867 153.037 88.64 153.037 87.84C153.037 86.9067 152.797 86.16 152.317 85.6C151.837 85.04 151.197 84.5867 150.397 84.24C149.624 83.8667 148.757 83.5333 147.797 83.24C146.864 82.9467 145.917 82.6133 144.957 82.24C143.997 81.8667 143.117 81.3867 142.317 80.8C141.544 80.1867 140.917 79.4 140.437 78.44C139.957 77.48 139.717 76.2533 139.717 74.76C139.717 73.0267 140.144 71.6 140.997 70.48C141.85 69.3333 142.97 68.48 144.357 67.92C145.77 67.36 147.277 67.08 148.877 67.08C150.504 67.08 151.984 67.36 153.317 67.92C154.677 68.48 155.757 69.36 156.557 70.56C157.384 71.7333 157.797 73.2667 157.797 75.16V75.64H152.557V75.28C152.557 74.1067 152.224 73.1867 151.557 72.52C150.917 71.8267 150.01 71.48 148.837 71.48C147.61 71.48 146.664 71.76 145.997 72.32C145.33 72.8533 144.997 73.5467 144.997 74.4C144.997 75.2 145.237 75.84 145.717 76.32C146.197 76.8 146.824 77.2 147.597 77.52C148.397 77.84 149.277 78.1467 150.237 78.44C151.197 78.7067 152.144 79.0267 153.077 79.4C154.037 79.7733 154.904 80.2667 155.677 80.88C156.477 81.4667 157.117 82.24 157.597 83.2C158.077 84.1333 158.317 85.32 158.317 86.76C158.317 88.8667 157.904 90.56 157.077 91.84C156.25 93.0933 155.104 94.0133 153.637 94.6C152.197 95.1867 150.53 95.48 148.637 95.48ZM162.232 95V67.56H179.712V72.12H167.352V78.68H177.952V83.24H167.352V90.44H179.952V95H162.232Z" fill="#006911"/>
<path d="M68.7354 66.4812V39.0412H80.2154C82.9888 39.0412 85.0821 39.7879 86.4954 41.2812C87.9088 42.7479 88.6154 44.6145 88.6154 46.8812C88.6154 48.5345 88.2021 49.9745 87.3754 51.2012C86.5488 52.4279 85.4288 53.3345 84.0154 53.9212L89.2954 66.4812H83.7354L79.1754 55.0412H73.8554V66.4812H68.7354ZM73.8554 50.5212H79.4954C80.7488 50.5212 81.6554 50.2012 82.2154 49.5612C82.8021 48.9212 83.0954 48.0279 83.0954 46.8812C83.0954 45.8679 82.8154 45.0679 82.2554 44.4812C81.7221 43.8945 80.8688 43.6012 79.6954 43.6012H73.8554V50.5212ZM90.0073 66.4812L98.8473 39.0412H104.807L113.647 66.4812H108.407L106.727 61.0812H96.6073L94.9673 66.4812H90.0073ZM98.0073 56.5212H105.327L102.567 47.3612C102.434 46.8812 102.301 46.3479 102.167 45.7612C102.034 45.1745 101.927 44.6812 101.847 44.2812C101.794 43.8545 101.767 43.6412 101.767 43.6412H101.607C101.607 43.6412 101.567 43.8679 101.487 44.3212C101.407 44.7479 101.301 45.2545 101.167 45.8412C101.061 46.4279 100.941 46.9345 100.807 47.3612L98.0073 56.5212ZM124.359 66.9612C122.679 66.9612 121.119 66.6412 119.679 66.0012C118.239 65.3612 117.079 64.4145 116.199 63.1612C115.319 61.8812 114.879 60.3079 114.879 58.4412C114.879 58.2812 114.879 58.1212 114.879 57.9612C114.906 57.8012 114.919 57.6679 114.919 57.5612H120.239C120.239 57.5879 120.226 57.6812 120.199 57.8412C120.199 57.9745 120.199 58.0945 120.199 58.2012C120.199 59.5079 120.586 60.5612 121.359 61.3612C122.133 62.1612 123.213 62.5612 124.599 62.5612C126.146 62.5612 127.226 62.2279 127.839 61.5612C128.453 60.8679 128.759 60.1212 128.759 59.3212C128.759 58.3879 128.519 57.6412 128.039 57.0812C127.559 56.5212 126.919 56.0679 126.119 55.7212C125.346 55.3479 124.479 55.0145 123.519 54.7212C122.586 54.4279 121.639 54.0945 120.679 53.7212C119.719 53.3479 118.839 52.8679 118.039 52.2812C117.266 51.6679 116.639 50.8812 116.159 49.9212C115.679 48.9612 115.439 47.7345 115.439 46.2412C115.439 44.5079 115.866 43.0812 116.719 41.9612C117.573 40.8145 118.693 39.9612 120.079 39.4012C121.493 38.8412 122.999 38.5612 124.599 38.5612C126.226 38.5612 127.706 38.8412 129.039 39.4012C130.399 39.9612 131.479 40.8412 132.279 42.0412C133.106 43.2145 133.519 44.7479 133.519 46.6412V47.1212H128.279V46.7612C128.279 45.5879 127.946 44.6679 127.279 44.0012C126.639 43.3079 125.733 42.9612 124.559 42.9612C123.333 42.9612 122.386 43.2412 121.719 43.8012C121.053 44.3345 120.719 45.0279 120.719 45.8812C120.719 46.6812 120.959 47.3212 121.439 47.8012C121.919 48.2812 122.546 48.6812 123.319 49.0012C124.119 49.3212 124.999 49.6279 125.959 49.9212C126.919 50.1879 127.866 50.5079 128.799 50.8812C129.759 51.2545 130.626 51.7479 131.399 52.3612C132.199 52.9479 132.839 53.7212 133.319 54.6812C133.799 55.6145 134.039 56.8012 134.039 58.2412C134.039 60.3479 133.626 62.0412 132.799 63.3212C131.973 64.5745 130.826 65.4945 129.359 66.0812C127.919 66.6679 126.253 66.9612 124.359 66.9612ZM137.954 66.4812V39.0412H143.074V50.1612H151.714V39.0412H156.834V66.4812H151.714V54.7212H143.074V66.4812H137.954Z" fill="#FC0D0D"/>
</svg>
